<svg xmlns="http://www.w3.org/2000/svg" width="1024" height="1024" viewBox="0 0 1024 1024" role="img" aria-label="Libra">
  <rect width="1024" height="1024" rx="180" fill="#070A0E"/>
  <g transform="translate(12 62)">
    <g transform="translate(90.00 93.24) scale(1.589147)">
      <path fill="#F8F5EF" fill-rule="evenodd" d="M 461.75 26.25 L 457.25 21.75 L 448.75 16 L 439 12 L 430.25 10 L 403.25 8.75 L 393.25 9 L 380 11 L 359.75 16 L 337 25 L 311 40 L 292.25 54 L 280 65 L 256 90.25 L 240 111.25 L 225 134 L 205 169 L 147 285.25 L 128 320.25 L 116 339.25 L 107.25 348 L 100 352 L 74 356 L 51.25 362 L 33 370 L 22.5 376.75 L 14.75 384.5 L 9 395.75 L 9 405.5 L 14 414.5 L 25.5 422.75 L 41.5 427.75 L 59.5 429.75 L 90.25 429.75 L 122.25 426.75 L 146 422.75 L 174.75 415.75 L 201.75 406.75 L 204.25 406.75 L 249.5 423.75 L 289 433.75 L 328.75 438.75 L 377.75 438.75 L 410.75 433.75 L 440.75 424.75 L 463.5 413.75 L 481.5 400.75 L 490.75 391.5 L 498.5 380.75 L 504.75 367.75 L 506.75 360 L 507.75 350.5 L 506.75 339.75 L 503.75 330 L 497.75 319.25 L 491.25 312 L 479.5 303 L 467.75 297 L 456.5 293 L 444 290 L 427.5 288 L 396.25 287.75 L 396.5 286.75 L 415.75 281.75 L 439.25 272.75 L 465.25 258.75 L 482.75 244.5 L 489.75 236.5 L 497.75 223.5 L 501.75 211.25 L 502 198.25 L 500.75 190.75 L 495.75 180.5 L 489.5 173 L 479.5 166 L 467.25 161 L 452.75 158 L 418.5 158 L 386.25 164 L 342.75 178 L 273 205 L 272.5 206.75 L 286.5 204.75 L 315 197 L 319 196.75 L 301 230 L 271.75 288.5 L 251 326.25 L 236 348.25 L 221.5 363.25 L 222.75 364.75 L 255.75 376 L 266.25 369 L 275.75 361 L 290.75 344.5 L 311.75 312.5 L 335.75 269.75 L 382.75 179.5 L 390.75 173 L 402.25 168.75 L 414.75 166.75 L 429.5 167 L 440 170 L 449.25 175.75 L 454.75 182.5 L 458 190 L 459 206 L 454.75 221 L 448.75 232.25 L 438.75 245.5 L 425.5 258.75 L 405 273.75 L 379.5 285.75 L 361 291 L 349.75 293 L 350.5 294 L 392.5 293.75 L 408.25 295.75 L 422.25 299.75 L 429.5 303 L 438.25 308.75 L 444.75 315.5 L 450 324.5 L 452.75 332.5 L 453.75 342.5 L 451.75 357.75 L 446.75 369.75 L 437.75 382.5 L 428.25 391 L 419.5 396.75 L 402.25 404 L 381 408.75 L 369.75 410 L 345 410 L 326.5 408 L 301 403 L 279.25 397 L 258.75 390 L 213.5 372 L 182.75 362 L 153.75 355 L 127 351.75 L 127.25 350.75 L 144.75 341.75 L 167.5 324.75 L 180.5 311.75 L 192.75 296.5 L 199.75 286.5 L 218.75 253.75 L 263.75 163.5 L 295.75 105.5 L 319 72.25 L 330 59.25 L 344.25 45 L 355.25 36 L 372.5 25 L 386.25 19 L 400.25 15.75 L 412 16 L 422.5 20 L 428.75 26.5 L 432 35.25 L 431.75 50 L 428.75 60.75 L 425 69.25 L 411.75 90.5 L 396.75 108.5 L 378.25 127 L 351.25 149 L 317.5 170.75 L 299.25 180 L 298.75 181.75 L 335.75 166.75 L 379.5 143.75 L 415.5 120.75 L 427.5 111.75 L 443.25 97.75 L 459.75 78.25 L 464.75 69.5 L 468.75 58.25 L 469.75 52.25 L 468.75 40.5 L 465.75 32.25 Z M 20.25 402.5 L 21 397.25 L 23.75 393.25 L 29.5 388 L 36.75 384 L 56 378 L 77 375 L 98 375.25 L 124.25 379 L 149.75 386 L 178.25 397 L 178 398 L 157.25 406 L 122.25 416 L 93.75 421 L 71.75 422.75 L 50.75 422 L 34.5 418 L 28.5 414.75 L 24 410.75 L 20.75 406 Z"/>
    </g>
  </g>
</svg>
